<?xml version="1.0" encoding="utf-8"?>
<!-- Generator: Adobe Illustrator 16.0.0, SVG Export Plug-In . SVG Version: 6.00 Build 0)  -->
<!DOCTYPE svg PUBLIC "-//W3C//DTD SVG 1.1//EN" "http://www.w3.org/Graphics/SVG/1.1/DTD/svg11.dtd">
<svg version="1.1" id="图层_1" xmlns="http://www.w3.org/2000/svg" xmlns:xlink="http://www.w3.org/1999/xlink" x="0px" y="0px"
	 width="100px" height="20px" viewBox="0 0 100 20" enable-background="new 0 0 100 20" xml:space="preserve">
<path fill="#FFFFFF" d="M0,9.785h44.755v0.432H0V9.785z M54.316,9.996L54.3,10h0.007h0.009l-0.05,0.016l-4.24,2.299l-0.004-0.002
	l-0.003,0.002L50,12.305l-0.019,0.01l-0.003-0.002l-0.004,0.002l-4.239-2.299L45.685,10h0.009h0.008l-0.017-0.004h0.011h0.042
	l4.237-2.31L50,7.7l0.024-0.014l4.238,2.31h0.042H54.316z M52.66,9.996l-0.12-0.068l-1.158-0.623L50,8.561L48.067,9.6L47.46,9.927
	l-0.119,0.068v0.014l0.119,0.067l2.018,1.085L50,11.441l0.472-0.252l2.067-1.113l0.12-0.067V9.996z M55.246,9.785v0.432H100V9.785
	H55.246z"/>
</svg>
